{
	"asset":{
		"generator":"Khronos glTF Blender I/O v4.0.44",
		"version":"2.0"
	},
	"scene":0,
	"scenes":[
		{
			"name":"Scene",
			"nodes":[
				0,
				2
			]
		}
	],
	"nodes":[
		{
			"name":"Empty.001.old",
			"translation":[
				2.2189183235168457,
				4.511566162109375,
				0.27994146943092346
			]
		},
		{
			"mesh":0,
			"name":"Vitruvian.001",
			"scale":[
				1.4379711151123047,
				1.4379711151123047,
				1.4379711151123047
			],
			"translation":[
				0.007673978805541992,
				-0.05222940444946289,
				-0.12122462689876556
			]
		},
		{
			"children":[
				1
			],
			"name":"Empty001",
			"translation":[
				2.194891929626465,
				4.109664440155029,
				0.3172113001346588
			]
		}
	],
	"meshes":[
		{
			"name":"Vitruvian.001",
			"primitives":[
				{
					"attributes":{
						"POSITION":0,
						"NORMAL":1,
						"TEXCOORD_0":2
					},
					"indices":3
				}
			]
		}
	],
	"accessors":[
		{
			"bufferView":0,
			"componentType":5126,
			"count":145027,
			"max":[
				1.2967520952224731,
				1.304132103919983,
				0.27165573835372925
			],
			"min":[
				-1.2411582469940186,
				-1.240760087966919,
				-0.3273891806602478
			],
			"type":"VEC3"
		},
		{
			"bufferView":1,
			"componentType":5126,
			"count":145027,
			"type":"VEC3"
		},
		{
			"bufferView":2,
			"componentType":5126,
			"count":145027,
			"type":"VEC2"
		},
		{
			"bufferView":3,
			"componentType":5125,
			"count":145089,
			"type":"SCALAR"
		}
	],
	"bufferViews":[
		{
			"buffer":0,
			"byteLength":1740324,
			"byteOffset":0,
			"target":34962
		},
		{
			"buffer":0,
			"byteLength":1740324,
			"byteOffset":1740324,
			"target":34962
		},
		{
			"buffer":0,
			"byteLength":1160216,
			"byteOffset":3480648,
			"target":34962
		},
		{
			"buffer":0,
			"byteLength":580356,
			"byteOffset":4640864,
			"target":34963
		}
	],
	"buffers":[
		{
			"byteLength":5221220,
			"uri":"vitruvian_man.bin"
		}
	]
}
